<!--?xml version="1.0" standalone="no"?-->
              <svg id="sw-js-blob-svg" viewBox="0 0 100 100" xmlns="http://www.w3.org/2000/svg" version="1.1">
                <path fill="#F5DDC7" d="M15.5,-19.8C21.3,-17.1,28.2,-14.2,32.4,-8.8C36.6,-3.3,38,4.7,33.8,8.9C29.7,13.1,19.8,13.5,13.3,17.3C6.7,21.2,3.3,28.7,-1,30C-5.3,31.3,-10.6,26.6,-13.2,21.4C-15.9,16.3,-15.8,10.7,-19.1,5.1C-22.4,-0.4,-29,-6,-28.4,-9.6C-27.8,-13.3,-19.9,-15,-14,-17.7C-8.1,-20.4,-4,-24.2,0.4,-24.8C4.8,-25.3,9.6,-22.6,15.5,-19.8Z" width="100%" height="100%" transform="translate(50 50)" style="transition: all 0.3s ease 0s;" stroke-width="0" stroke="url(#sw-gradient)"></path>
              </svg>