<!--?xml version="1.0" standalone="no"?-->
              <svg id="sw-js-blob-svg" viewBox="0 0 100 100" xmlns="http://www.w3.org/2000/svg" version="1.1">
                    <defs> 
                        <linearGradient id="sw-gradient" x1="0" x2="1" y1="1" y2="0">
                            <stop id="stop1" stop-color="rgba(245, 221, 199, 1)" offset="0%"></stop>
                            <stop id="stop2" stop-color="rgba(245, 221, 199, 1)" offset="100%"></stop>
                        </linearGradient>
                    </defs>
                <path fill="url(#sw-gradient)" d="M28.1,-31.2C36.1,-26.8,42.2,-17.6,42,-8.9C41.7,-0.1,35.3,8.3,29.2,14.9C23,21.5,17.2,26.3,10.2,29.5C3.1,32.8,-5,34.5,-10.7,31.5C-16.4,28.5,-19.5,20.8,-18.8,14.5C-18,8.2,-13.2,3.4,-14.6,-4.9C-15.9,-13.2,-23.3,-24.9,-21.9,-30.6C-20.5,-36.2,-10.3,-35.8,-0.1,-35.7C10,-35.5,20.1,-35.7,28.1,-31.2Z" width="100%" height="100%" transform="translate(50 50)" style="transition: all 0.3s ease 0s;" stroke-width="0" stroke="url(#sw-gradient)"></path>
              </svg>